Coordinates
version=1
nRows=10
nColumns=63
inDegrees=yes

Units are S.I. units (second, meters, Newtons, ...)
If the header above contains a line with 'inDegrees', this indicates whether rotational values are in degrees (yes) or radians (no).

endheader
time	pelvis_tilt	pelvis_list	pelvis_rotation	pelvis_tx	pelvis_ty	pelvis_tz	hip_flexion_r	hip_adduction_r	hip_rotation_r	knee_angle_r	knee_angle_r_beta	ankle_angle_r	subtalar_angle_r	mtp_angle_r	hip_flexion_l	hip_adduction_l	hip_rotation_l	knee_angle_l	knee_angle_l_beta	ankle_angle_l	subtalar_angle_l	mtp_angle_l	L5_S1_Flex_Ext	L5_S1_Lat_Bending	L5_S1_axial_rotation	L4_L5_Flex_Ext	L4_L5_Lat_Bending	L4_L5_axial_rotation	L3_L4_Flex_Ext	L3_L4_Lat_Bending	L3_L4_axial_rotation	L2_L3_Flex_Ext	L2_L3_Lat_Bending	L2_L3_axial_rotation	L1_L2_Flex_Ext	L1_L2_Lat_Bending	L1_L2_axial_rotation	L1_T12_Flex_Ext	L1_T12_Lat_Bending	L1_T12_axial_rotation	Abs_r3	Abs_r2	Abs_r1	Abs_t1	Abs_t2	neck_flexion	neck_bending	neck_rotation	arm_flex_r	arm_add_r	arm_rot_r	elbow_flex_r	pro_sup_r	wrist_flex_r	wrist_dev_r	arm_flex_l	arm_add_l	arm_rot_l	elbow_flex_l	pro_sup_l	wrist_flex_l	wrist_dev_l
      3.22033898	      5.06782630	     -2.95687900	    107.40327330	      0.00126194	      1.01950361	      0.64341480	     -3.92759944	      3.11195356	      4.03788847	      0.40573567	      0.00708142	     20.85616280	    -16.68711293	      0.00000000	     -0.44074153	     -3.27335859	     24.37841623	      0.71911727	      0.01255096	     24.71132702	    -12.13217676	      0.00000000	      0.13892402	      0.17388691	     -1.94759142	      0.25799580	      0.23126959	     -2.06931588	      0.22823827	      0.42278864	     -2.06931588	      0.15877626	      0.42278864	     -1.70414249	      0.12900484	      0.35459019	     -1.58241803	      0.07938118	      0.26935083	     -1.46069356	      0.99232038	      1.96704353	    -10.83191919	      0.00000000	      0.00000000	     26.97937605	      9.76387578	      0.01810485	     12.50040618	     -3.38877686	     65.33555808	     24.60099671	      9.75128357	      2.35720326	     -2.75402933	     15.60946730	     -5.25523861	     68.35064069	     32.21953003	     63.09798362	      2.02911754	     -8.58283589
      3.23728814	      5.07554869	     -2.94111936	    107.24675197	      0.00167848	      1.01959030	      0.64324145	     -3.89499440	      3.12110842	      4.03445038	      0.38588580	      0.00673498	     21.06065589	    -16.72864529	      0.00000000	     -0.44451699	     -3.32957914	     24.52798660	      0.65810386	      0.01148608	     24.93581308	    -12.08881740	      0.00000000	      0.15160115	      0.16635490	     -1.93938394	      0.28153849	      0.22125201	     -2.06059543	      0.24906552	      0.40447530	     -2.06059543	      0.17326495	      0.40447530	     -1.69696095	      0.14077682	      0.33923091	     -1.57574945	      0.08662490	      0.25768374	     -1.45453795	      1.08287183	      1.88183987	    -10.78627165	      0.00000000	      0.00000000	     26.98777442	      9.74704198	     -0.01768357	     12.79637871	     -3.41542845	     65.26720595	     24.61283702	      9.72732591	      2.34191294	     -2.80483101	     15.58500399	     -5.28110322	     68.39236061	     32.14671072	     63.10365049	      2.03920871	     -8.55586105
      3.25423729	      5.05935416	     -2.91497814	    107.06838964	      0.00208685	      1.01964190	      0.64300065	     -3.89409243	      3.07838536	      4.22543453	      0.37907385	      0.00661609	     21.34049402	    -16.59216367	      0.00000000	     -0.45304272	     -3.38367392	     24.95215226	      0.63585416	      0.01109775	     25.48008989	    -11.98590484	      0.00000000	      0.16123742	      0.15510959	     -1.87485360	      0.29943401	      0.20629575	     -1.99203195	      0.26489695	      0.37713346	     -1.99203195	      0.18427824	      0.37713346	     -1.64049690	      0.14972507	      0.31629948	     -1.52331855	      0.09213106	      0.24026476	     -1.40614020	      1.15170274	      1.75463070	    -10.42737326	      0.00000000	      0.00000000	     26.96877570	      9.74054875	     -0.34581772	     13.06730225	     -3.50400598	     65.33730332	     24.61604041	      9.72137428	      2.18070406	     -3.23353530	     15.62482413	     -5.24333707	     68.64136238	     32.04051354	     63.19894659	      2.16978577	     -8.51769231
      3.27118644	      5.03955344	     -2.93199006	    106.92533628	      0.00236531	      1.01977171	      0.64353774	     -3.81178171	      3.02947250	      4.18892135	      0.35890291	      0.00626404	     21.39102286	    -16.60333751	      0.00000000	     -0.38094102	     -3.37512119	     25.07752259	      0.56757273	      0.00990601	     25.65858639	    -11.95838218	      0.00000000	      0.15979737	      0.15161073	     -1.85715006	      0.29675970	      0.20164227	     -1.97322194	      0.26253110	      0.36862633	     -1.97322194	      0.18263241	      0.36862633	     -1.62500631	      0.14838784	      0.30916460	     -1.50893443	      0.09130822	      0.23484502	     -1.39286255	      1.14141663	      1.71505091	    -10.32891151	      0.00000000	      0.00000000	     26.84628094	      9.76433269	     -0.41543428	     13.42655750	     -3.58144826	     65.29735864	     24.65373160	      9.73502838	      2.16040888	     -3.38010518	     15.73275540	     -5.29542617	     68.64979102	     32.01168382	     63.22142870	      2.17192737	     -8.53273611
      3.28813559	      4.89625364	     -2.93638681	    106.31719453	      0.00345776	      1.02005890	      0.64405585	     -3.73081817	      2.83001338	      4.52292296	      0.40236801	      0.00702265	     21.43942357	    -16.20226583	      0.00000000	     -0.39770754	     -3.25234821	     25.27696956	      0.56519076	      0.00986444	     25.82542742	    -12.48334856	      0.00000000	      0.14554825	      0.12102426	     -1.64915347	      0.27029766	      0.16096226	     -1.75222556	      0.23912123	      0.29425838	     -1.75222556	      0.16634710	      0.29425838	     -1.44300929	      0.13515611	      0.24679266	     -1.33993719	      0.08316627	      0.18746657	     -1.23686510	      1.03963662	      1.36905060	     -9.17209685	      0.00000000	      0.00000000	     26.52776272	      9.77530693	     -2.03837033	     13.85914580	     -3.99542311	     67.42319003	     24.98468639	     10.71218565	      1.14766668	     -6.69485057	     16.31383400	     -5.27406743	     69.79883110	     31.72634626	     64.26120994	      1.93820283	     -9.15631359
      3.30508475	      4.84077548	     -2.97126367	    106.14078844	      0.00381141	      1.02026432	      0.64506346	     -3.62049811	      2.73666407	      4.65113774	      0.40252461	      0.00702538	     21.35201844	    -16.12109730	      0.00000000	     -0.28131287	     -3.18652477	     25.30820494	      0.57177735	      0.00997940	     25.82215275	    -12.53738689	      0.00000000	      0.13014372	      0.11736197	     -1.63486860	      0.24168990	      0.15609142	     -1.73704789	      0.21381312	      0.28535390	     -1.73704789	      0.14874126	      0.28535390	     -1.43051003	      0.12085146	      0.23932454	     -1.32833074	      0.07436412	      0.18179370	     -1.22615145	      0.92960358	      1.32762211	     -9.09264869	      0.00000000	      0.00000000	     26.14985517	     10.12260405	     -1.95091184	     14.05120174	     -4.25056333	     67.30401011	     25.42397079	     10.74312449	      1.26461894	     -7.29374911	     16.53716852	     -5.43571586	     69.70825068	     31.85792948	     64.39649737	      1.73156285	     -9.30031014
      3.32203390	      4.82363809	     -3.18807275	    105.62278837	      0.00465313	      1.02020035	      0.64604174	     -3.27605422	      2.60719699	      5.27292818	      0.43205657	      0.00754081	     21.35562502	    -16.07696515	      0.00000000	     -0.05568282	     -3.09475932	     25.02696125	      0.57589209	      0.01005121	     25.63581912	    -12.95029271	      0.00000000	      0.13705009	      0.12344363	     -1.56091723	      0.25451572	      0.16418003	     -1.65847456	      0.22515959	      0.30014084	     -1.65847456	      0.15663455	      0.30014084	     -1.36580258	      0.12726471	      0.25172625	     -1.26824525	      0.07831042	      0.19121418	     -1.17068792	      0.97893508	      1.39641903	     -8.68135336	      0.00000000	      0.00000000	     25.92206730	     10.74042102	     -1.02041780	     13.83907636	     -4.49783314	     66.24601419	     26.08389860	     10.83137346	      1.14157513	     -8.90272479	     16.68244233	     -5.53917272	     69.45879905	     32.04182734	     65.49939613	      0.60603639	     -9.69700080
      3.33898305	      4.85346027	     -3.39798352	    105.24808053	      0.00519540	      1.01996745	      0.64690853	     -2.95485230	      2.53870843	      6.12709478	      0.45606044	      0.00795976	     21.18832117	    -16.44781538	      0.00000000	      0.16500727	     -3.04637067	     24.75814209	      0.61247599	      0.01068972	     25.28558814	    -13.41297166	      0.00000000	      0.13837224	      0.13836849	     -1.53699106	      0.25697108	      0.18403010	     -1.63305300	      0.22733175	      0.33642916	     -1.63305300	      0.15814563	      0.33642916	     -1.34486718	      0.12849246	      0.28216103	     -1.24880524	      0.07906590	      0.21433280	     -1.15274329	      0.98837904	      1.56525209	     -8.54828317	      0.00000000	      0.00000000	     25.89404452	     10.86564655	     -0.22670153	     12.88052626	     -4.73733330	     61.10118930	     27.41016692	     14.50562017	      0.76699809	     -7.84544436	     16.22743366	     -5.64581273	     66.61640773	     32.51584797	     69.78978565	      0.25358155	     -9.51296389
      3.35593220	      4.94113649	     -3.63063810	    104.80653818	      0.00565049	      1.01962756	      0.64794944	     -2.57675140	      2.50081246	      6.63740385	      0.48659218	      0.00849264	     21.29695388	    -16.07858028	      0.00000000	      0.41162642	     -3.03452895	     23.60847217	      0.68188563	      0.01190115	     25.19644200	    -12.84810676	      0.00000000	      0.14608321	      0.16528658	     -1.48657862	      0.27129114	      0.21983116	     -1.57948978	      0.24000011	      0.40187780	     -1.57948978	      0.16695851	      0.40187780	     -1.30075629	      0.13565287	      0.33705240	     -1.20784513	      0.08347195	      0.25602892	     -1.11493396	      1.04345779	      1.86975489	     -8.26790429	      0.00000000	      0.00000000	     25.98552097	     10.92937080	      0.80309592	     12.24371974	     -5.02781492	     58.25436600	     28.58639041	     15.03668759	      0.73292751	     -7.35610002	     16.43040563	     -5.70431572	     66.77142476	     32.61286397	     70.81523720	     -0.66841690	    -10.33461241
      3.37288136	      5.02187220	     -3.90248203	    104.42539072	      0.00610260	      1.01908652	      0.64869977	     -2.18363910	      2.47113503	      7.49379421	      0.51221221	      0.00893979	     21.26811515	    -16.39742320	      0.00000000	      0.68233005	     -2.99728976	     23.45178156	      0.74499901	      0.01300269	     24.78550978	    -13.75484243	      0.00000000	      0.16452167	      0.18650035	     -1.44227683	      0.30553320	      0.24804547	     -1.53241913	      0.27029266	      0.45345696	     -1.53241913	      0.18803182	      0.45345696	     -1.26199223	      0.15277483	      0.38031152	     -1.17184993	      0.09400768	      0.28888905	     -1.08170762	      1.17516186	      2.10972930	     -8.02151105	      0.00000000	      0.00000000	     26.25870223	     10.65738859	      1.36719560	     11.37222936	     -5.11632321	     54.45725812	     29.75120674	     16.78826101	      0.41654130	     -5.69500434	     16.11757584	     -5.77834706	     65.01406700	     33.00038360	     73.53663689	     -0.90552123	    -10.16434121
